<?xml version="1.0" encoding="UTF-8" standalone="no"?>
<!-- Created with Inkscape (http://www.inkscape.org/) -->

<svg
   xmlns:osb="http://www.openswatchbook.org/uri/2009/osb"
   xmlns:dc="http://purl.org/dc/elements/1.1/"
   xmlns:cc="http://creativecommons.org/ns#"
   xmlns:rdf="http://www.w3.org/1999/02/22-rdf-syntax-ns#"
   xmlns:svg="http://www.w3.org/2000/svg"
   xmlns="http://www.w3.org/2000/svg"
   xmlns:xlink="http://www.w3.org/1999/xlink"
   xmlns:sodipodi="http://sodipodi.sourceforge.net/DTD/sodipodi-0.dtd"
   xmlns:inkscape="http://www.inkscape.org/namespaces/inkscape"
   width="48"
   height="48"
   viewBox="0 0 48 48.000001"
   id="svg2"
   version="1.1"
   inkscape:version="0.91 r13725"
   sodipodi:docname="logo_app.svg"
   inkscape:export-filename="192_square.png"
   inkscape:export-xdpi="360"
   inkscape:export-ydpi="360">
  <defs
     id="defs4">
    <linearGradient
       inkscape:collect="always"
       id="linearGradient5617">
      <stop
         style="stop-color:#ffffff;stop-opacity:1"
         offset="0"
         id="stop5619" />
      <stop
         style="stop-color:#ffd6ce;stop-opacity:1"
         offset="1"
         id="stop5621" />
    </linearGradient>
    <linearGradient
       id="linearGradient5611"
       osb:paint="solid">
      <stop
         style="stop-color:#c8b7b7;stop-opacity:1;"
         offset="0"
         id="stop5613" />
    </linearGradient>
    <linearGradient
       inkscape:collect="always"
       xlink:href="#linearGradient5617"
       id="linearGradient5623"
       x1="22.50565"
       y1="1013.8073"
       x2="25.686331"
       y2="1039.2993"
       gradientUnits="userSpaceOnUse"
       gradientTransform="matrix(0.70710678,0.70710678,-0.70710678,0.70710678,734.34283,284.2925)" />
  </defs>
  <sodipodi:namedview
     id="base"
     pagecolor="#0097a7"
     bordercolor="#666666"
     borderopacity="1.0"
     inkscape:pageopacity="0"
     inkscape:pageshadow="2"
     inkscape:zoom="0.35"
     inkscape:cx="375"
     inkscape:cy="520"
     inkscape:document-units="px"
     inkscape:current-layer="layer1"
     showgrid="false"
     inkscape:object-nodes="true"
     units="px"
     inkscape:window-width="1278"
     inkscape:window-height="1324"
     inkscape:window-x="10"
     inkscape:window-y="24"
     inkscape:window-maximized="0"
     borderlayer="true"
     showborder="false" />
  <metadata
     id="metadata7">
    <rdf:RDF>
      <cc:Work
         rdf:about="">
        <dc:format>image/svg+xml</dc:format>
        <dc:type
           rdf:resource="http://purl.org/dc/dcmitype/StillImage" />
        <dc:title></dc:title>
      </cc:Work>
    </rdf:RDF>
  </metadata>
  <g
     inkscape:label="Layer 1"
     inkscape:groupmode="layer"
     id="layer1"
     transform="translate(0,-1004.3622)">
    <circle
       style="color:#000000;clip-rule:nonzero;display:inline;overflow:visible;visibility:visible;opacity:1;isolation:auto;mix-blend-mode:normal;color-interpolation:sRGB;color-interpolation-filters:linearRGB;solid-color:#000000;solid-opacity:1;fill:#0097a7;fill-opacity:1;fill-rule:nonzero;stroke:none;stroke-width:20;stroke-linecap:butt;stroke-linejoin:miter;stroke-miterlimit:4;stroke-dasharray:none;stroke-dashoffset:0;stroke-opacity:1;color-rendering:auto;image-rendering:auto;shape-rendering:auto;text-rendering:auto;enable-background:accumulate"
       id="path4149"
       cx="24"
       cy="1028.3622"
       r="24" />
    <g
       id="g4158"
       transform="matrix(0.70710678,-0.70710678,0.70710678,0.70710678,-720.13246,318.17086)">
      <g
         id="g4162"
         transform="translate(0.10761218,-1.5172232)">
        <path
           sodipodi:nodetypes="sccszzzzs"
           d="m 36.9832,1022.1063 c -0.124807,-1.5211 -1.248763,-2.7749 -2.775005,-2.775 l -22.200002,10e-5 c -1.526235,0 -2.780682,1.2487 -2.7749682,2.7749 l 0.070084,18.7201 c 4e-6,0.7631 1.4260932,0.775 2.1892092,0.775 l 24.715635,-0.07 c 0.763189,-10e-5 2.189278,-1.4262 2.189274,-2.1893 z"
           id="path4151-3"
           inkscape:connector-curvature="0"
           style="fill:#984263;fill-opacity:0.80254774" />
        <path
           sodipodi:nodetypes="sccszzzzs"
           d="m 38.374993,1019.7515 c -8e-6,-1.5263 -1.248763,-2.775 -2.775005,-2.775 l -22.200002,0 c -1.526235,0 -2.774978,1.2487 -2.77497,2.775 0,0 10e-6,17.8868 1.5e-5,18.6499 3e-6,0.7631 0.01188,0.775 0.774996,0.775 0.763114,0 25.436802,10e-5 26.199919,10e-5 0.763189,-10e-5 0.775064,-0.012 0.77506,-0.7751 -4e-6,-0.7631 -1.3e-5,-18.6499 -1.3e-5,-18.6499 z"
           id="path4151"
           inkscape:connector-curvature="0"
           style="fill:url(#linearGradient5623);fill-opacity:1" />
        <g
           transform="matrix(0.98570795,0,0,0.98570795,211.89697,125.51657)"
           id="g4224">
          <path
             id="path4167"
             d="m -192.61409,914.14634 0,-6 -3,0 0,9 17,0 0,-3 z"
             inkscape:connector-curvature="0"
             sodipodi:nodetypes="ccccccc"
             style="fill:#ff4081;fill-opacity:1" />
          <path
             sodipodi:nodetypes="ccccc"
             id="path4167-3"
             d="m -192.61409,918.14634 -3,0 0,5 3,0 z"
             inkscape:connector-curvature="0"
             style="fill:#ff99bb;fill-opacity:1" />
          <path
             sodipodi:nodetypes="ccccc"
             id="path4167-3-6"
             d="m -196.61409,917.14634 0,-3 -5,0 0,3 z"
             inkscape:connector-curvature="0"
             style="fill:#ff99bb;fill-opacity:1" />
        </g>
      </g>
    </g>
  </g>
</svg>
