<svg width="100" height="100" preserveAspectRatio="xMidYMid meet" viewBox="0 0 100 100">
 <g transform="matrix(.014180 0 0 -.014180 21.506 78.374)" fill="#fff">
  <path d="m-35.666 2917.8v-493.66h1410.4v987.32h-1410.4v-493.66z"/>
  <path d="m1516.8 2920.8 1.8961-491.62 1268.5-3.0535 1267.5-2.0357v987.32h-2538.8l0.948-490.6z"/>
  <path d="m-35.666 1722.5v-560.57l1354.9-0.9852h1365.7c5.8995-0.9851 30.481-16.748 54.078-36.452 22.615-19.704 61.944-52.214 85.542-71.918 42.279-34.481 225.16-189.15 320.54-271.91 27.531-22.659 89.475-74.873 137.65-116.25l88.492-73.888 2.9498 284.72 1.9665 284.72 37.363 0.9851h339.22l301.86 0.9852v1121.1h-4090.2v-560.57z"/>
 </g>
</svg>
